<svg width="204" height="64" viewBox="0 0 204 64" fill="none" xmlns="http://www.w3.org/2000/svg"><path d="M20.083 43V31.032l-3.808 8.416h-3.328l-3.808-8.416V43h-6.24V20.28h6.816l4.896 10.688 4.928-10.688h6.784V43h-6.24Zm13.424-5.76V26.168h6.08v9.696c0 .725.16 1.301.48 1.728.341.405.8.608 1.376.608.32 0 .64-.043.96-.128.32-.085.64-.256.96-.512.341-.256.672-.619.992-1.088V26.168h6.08V36.28c0 .576.085.981.256 1.216.17.213.469.341.896.384V43c-.534.107-1.014.181-1.44.224-.427.064-.8.096-1.12.096-1.024 0-1.835-.192-2.432-.576-.598-.384-.982-.97-1.152-1.76l-.128-.608c-.79 1.045-1.739 1.803-2.848 2.272-1.088.448-2.326.672-3.712.672-1.686 0-2.987-.523-3.904-1.568-.896-1.045-1.344-2.55-1.344-4.512Zm31.158 6.08c-1.472 0-2.923-.235-4.352-.704-1.408-.49-2.603-1.195-3.584-2.112l2.08-3.744c1.045.683 2.048 1.216 3.008 1.6.981.384 1.867.576 2.656.576.448 0 .778-.053.992-.16.213-.128.32-.33.32-.608a.606.606 0 0 0-.224-.48c-.15-.128-.395-.256-.736-.384-.32-.128-.736-.267-1.248-.416a43.672 43.672 0 0 1-3.328-1.312c-.875-.405-1.536-.896-1.984-1.472-.427-.597-.64-1.387-.64-2.368 0-1.152.288-2.165.864-3.04.576-.896 1.397-1.6 2.464-2.112 1.088-.512 2.39-.768 3.904-.768 1.13 0 2.261.181 3.392.544 1.152.341 2.261.97 3.328 1.888l-2.304 3.712c-1.067-.661-1.974-1.13-2.72-1.408-.725-.277-1.376-.416-1.952-.416a2.56 2.56 0 0 0-.736.096.962.962 0 0 0-.448.288c-.107.128-.16.299-.16.512a.74.74 0 0 0 .224.544c.15.128.384.256.704.384.32.107.725.235 1.216.384 1.45.427 2.635.864 3.552 1.312.917.427 1.59.95 2.016 1.568.448.619.672 1.43.672 2.432 0 1.77-.63 3.157-1.888 4.16-1.237 1.003-2.933 1.504-5.088 1.504Zm13.12-.32V26.168h6.08V43h-6.08Zm0-18.24v-5.12h6.08v5.12h-6.08ZM99.1 43.32c-1.493 0-2.816-.235-3.968-.704-1.13-.47-2.09-1.11-2.88-1.92a8.55 8.55 0 0 1-1.792-2.816 9.035 9.035 0 0 1-.608-3.296c0-1.536.352-2.965 1.056-4.288.726-1.344 1.771-2.421 3.136-3.232 1.387-.81 3.072-1.216 5.056-1.216 2.027 0 3.734.427 5.12 1.28 1.387.853 2.422 1.952 3.104 3.296l-5.92 1.792a2.823 2.823 0 0 0-1.024-.928 2.654 2.654 0 0 0-1.312-.32c-.554 0-1.056.15-1.504.448-.448.277-.81.683-1.088 1.216-.256.533-.384 1.184-.384 1.952 0 .747.128 1.397.384 1.952.278.533.64.95 1.088 1.248a2.8 2.8 0 0 0 1.504.416c.342 0 .651-.043.928-.128a2.77 2.77 0 0 0 .768-.448c.256-.192.47-.416.64-.672l5.92 1.792a7.604 7.604 0 0 1-1.856 2.368c-.768.683-1.685 1.227-2.752 1.632-1.045.384-2.25.576-3.616.576Zm22.121 0c-1.493 0-2.816-.235-3.968-.704-1.152-.47-2.123-1.11-2.912-1.92a8.813 8.813 0 0 1-1.76-2.816 9.482 9.482 0 0 1-.576-3.296c0-1.152.192-2.25.576-3.296a8.371 8.371 0 0 1 1.76-2.816c.789-.81 1.76-1.45 2.912-1.92s2.475-.704 3.968-.704c1.515 0 2.837.235 3.968.704 1.152.47 2.112 1.11 2.88 1.92a7.762 7.762 0 0 1 1.76 2.816 9.044 9.044 0 0 1 .608 3.296c0 1.152-.203 2.25-.608 3.296a8.138 8.138 0 0 1-1.76 2.816c-.768.81-1.728 1.45-2.88 1.92-1.131.47-2.453.704-3.968.704Zm-2.976-8.736c0 .747.128 1.397.384 1.952.256.533.608.95 1.056 1.248.448.277.96.416 1.536.416a2.86 2.86 0 0 0 1.536-.416c.448-.299.8-.715 1.056-1.248.256-.555.384-1.205.384-1.952 0-.747-.128-1.387-.384-1.92-.256-.555-.608-.97-1.056-1.248a2.705 2.705 0 0 0-1.536-.448 2.71 2.71 0 0 0-1.536.448c-.448.277-.8.693-1.056 1.248-.256.533-.384 1.173-.384 1.92Z" fill="#fff" fill-opacity=".75"/><circle cx="189.778" cy="32" r="14.222" transform="rotate(-180 189.778 32)" fill="#005609"/><circle cx="163.111" cy="32" r="8.889" transform="rotate(-180 163.111 32)" fill="#005609" fill-opacity=".75"/><circle cx="145.333" cy="32" r="5.333" transform="rotate(-180 145.333 32)" fill="#005609" fill-opacity=".5"/></svg>